<svg width="39" height="26" viewBox="0 0 39 26" fill="none" xmlns="http://www.w3.org/2000/svg">
<rect y="0.405945" width="38.1912" height="25.2306" rx="1.90956" fill="#EDEDED"/>
<path d="M33.4174 13.6772V12.3506H31.3084V10.11H29.7977V12.3506H27.6887V13.6772H29.7977V15.9325H31.3084V13.6772H33.4174Z" fill="#00003D"/>
<path d="M11.493 6.22821C12.2431 6.22821 12.934 6.31423 13.5657 6.48628C14.1974 6.64604 14.7435 6.89183 15.2041 7.22364C15.6647 7.54316 16.02 7.93641 16.2701 8.4034C16.5333 8.87039 16.6649 9.39882 16.6649 9.98871C16.6649 10.6892 16.507 11.359 16.1911 11.998C15.8884 12.637 15.441 13.2576 14.8488 13.8598C14.2698 14.462 13.5591 15.0519 12.7169 15.6295C11.8746 16.1948 10.9271 16.7601 9.8743 17.3254H16.7241V19.8139H5.72888V17.3254C6.68957 16.674 7.63051 16.0411 8.55171 15.4267C9.47292 14.7999 10.2888 14.1916 10.9995 13.6017C11.7233 12.9996 12.3023 12.4158 12.7366 11.8505C13.1709 11.2852 13.388 10.7261 13.388 10.173C13.388 9.59545 13.1906 9.17147 12.7958 8.90111C12.401 8.61846 11.9338 8.47714 11.3943 8.47714C11.1048 8.47714 10.8152 8.52629 10.5257 8.6246C10.2494 8.71063 9.99932 8.8581 9.7756 9.06702C9.56504 9.27593 9.39395 9.56473 9.26235 9.93341C9.13075 10.2898 9.07811 10.7322 9.10443 11.2606H5.8868C5.86048 10.4741 5.97892 9.7675 6.24212 9.14075C6.51848 8.514 6.90671 7.98557 7.40679 7.55544C7.90687 7.12532 8.50565 6.79966 9.20313 6.57845C9.90062 6.34496 10.6639 6.22821 11.493 6.22821Z" fill="#00003D"/>
<path d="M21.5871 19.8139V10.8367H18.33V8.60617C18.9222 8.59388 19.4354 8.54473 19.8697 8.4587C20.3172 8.36039 20.6988 8.22521 21.0146 8.05316C21.3305 7.88111 21.5937 7.66605 21.8042 7.40797C22.0148 7.13761 22.199 6.81809 22.357 6.44942H24.8245V19.8139H21.5871Z" fill="#00003D"/>
</svg>
