<svg width="39" height="27" viewBox="0 0 39 27" fill="none" xmlns="http://www.w3.org/2000/svg">
<path d="M36.7402 2.91113H2.36816V5.98222H36.7402V2.91113Z" fill="#EDEDED"/>
<path d="M18.4805 9.37189L16.693 17.8206H14.5308L16.3187 9.37189H18.4805ZM27.5766 14.8273L28.7145 11.6547L29.3692 14.8273H27.5766ZM29.9898 17.8206H31.989L30.2425 9.37189H28.3982C27.9823 9.37189 27.6323 9.61575 27.4772 9.99144L24.2328 17.8206H26.5035L26.9542 16.559H29.7277L29.9898 17.8206ZM24.3457 15.0624C24.3552 12.8328 21.2967 12.7092 21.3172 11.7131C21.3239 11.4102 21.6092 11.0875 22.2339 11.0052C22.5435 10.9649 23.3978 10.9324 24.3662 11.3834L24.745 9.59091C24.2248 9.40089 23.5554 9.21771 22.7226 9.21771C20.5852 9.21771 19.0817 10.3655 19.0696 12.0103C19.0558 13.2267 20.1439 13.9049 20.9616 14.3098C21.8047 14.7237 22.0871 14.9899 22.0833 15.3596C22.0776 15.9264 21.4106 16.1775 20.7902 16.187C19.7024 16.2041 19.072 15.8898 18.5696 15.6529L18.1771 17.5049C18.6832 17.7391 19.6157 17.9428 20.5808 17.9533C22.853 17.9533 24.3389 16.819 24.3457 15.0624ZM15.3912 9.37189L11.888 17.8206H9.60292L7.87882 11.078C7.77436 10.6633 7.68334 10.511 7.36568 10.3358C6.84549 10.0503 5.9873 9.78343 5.23242 9.61741L5.28359 9.37189H8.96268C9.43121 9.37189 9.85285 9.68742 9.9601 10.233L10.8708 15.1224L13.1198 9.37189H15.3912Z" fill="#EDEDED"/>
<path d="M36.7402 21.1894H2.36816V24.2608H36.7402V21.1894Z" fill="#EDEDED"/>
<rect x="0.935886" y="1.44809" width="37.2364" height="24.2758" stroke="#EDEDED" stroke-width="0.954779"/>
</svg>
