<svg width="58" height="28" viewBox="0 0 58 28" fill="none" xmlns="http://www.w3.org/2000/svg">
<path fill-rule="evenodd" clip-rule="evenodd" d="M13.1529 0C13.1771 0.238218 13.1876 0.477652 13.1841 0.717108C13.1062 1.94683 12.5907 3.10743 11.7317 3.98696C11.3394 4.40042 10.9049 4.76312 10.3702 4.97632C9.91284 5.16012 9.43453 5.19567 8.95252 5.2315L8.94632 5.23196L8.94477 5.23185C8.94331 5.23163 8.94184 5.23113 8.94038 5.23046C8.93892 5.22983 8.93745 5.22903 8.93599 5.22814L8.93108 5.22481C8.92841 5.22301 8.92583 5.22123 8.92334 5.21997C8.99221 2.39495 10.4097 0.567584 13.1529 0ZM17.4091 7.00381L17.2367 7.16205C17.075 7.31007 16.9133 7.45816 16.7542 7.60925C15.9907 8.33466 15.4175 9.17818 15.2153 10.2303C15.0698 10.9213 15.0747 11.6358 15.2297 12.3247C15.3846 13.0136 15.6859 13.6608 16.1129 14.2219C16.553 14.8209 17.0775 15.3183 17.7757 15.6062C17.825 15.6263 17.8746 15.645 17.9282 15.6651C17.9635 15.6784 18.0005 15.6924 18.0403 15.7078C18.024 15.7518 18.0081 15.7956 17.9925 15.8393L17.957 15.939L17.9503 15.9577L17.9425 15.9799C17.8877 16.1349 17.8333 16.2881 17.7711 16.4387C17.2024 17.8231 16.4629 19.1041 15.4533 20.2153C15.2624 20.4207 15.0563 20.6114 14.8369 20.7856C14.1019 21.3855 13.2751 21.6162 12.3427 21.3394C11.8778 21.2028 11.4185 21.0496 10.9555 20.9065C10.4838 20.7463 9.99213 20.6531 9.49479 20.6296C8.87194 20.6149 8.30057 20.8022 7.72179 21.0145C7.28859 21.1862 6.84566 21.332 6.39524 21.451C5.6851 21.6218 5.04201 21.4021 4.45411 21.0016C3.8755 20.5905 3.37722 20.0758 2.98422 19.4834C1.96019 18.0349 1.19116 16.4207 0.710526 14.711C0.27922 13.1939 0.175482 11.6017 0.406459 10.0411C0.61402 8.6503 1.13038 7.39514 2.10233 6.35779C3.11284 5.28351 4.3576 4.84144 5.81466 4.98727C6.54039 5.05926 7.23306 5.27059 7.92754 5.47363C8.05625 5.51139 8.18624 5.54497 8.31667 5.57718L8.41739 5.60178L8.52293 5.62732C8.5714 5.63903 8.61996 5.65076 8.66843 5.66266C8.71431 5.67391 8.76011 5.68531 8.80582 5.69697C9.21621 5.78988 9.64407 5.76851 10.0433 5.63514C10.3435 5.54703 10.6417 5.45256 10.9393 5.35829L10.9411 5.3577C11.2103 5.27244 11.479 5.18735 11.7483 5.10723C12.5839 4.84445 13.4708 4.79122 14.3316 4.95219C15.4634 5.17184 16.3582 5.78282 17.1069 6.63927C17.1987 6.74633 17.2907 6.85522 17.3825 6.96414C17.3925 6.97654 17.4015 6.98981 17.4091 7.00381ZM27.9169 3.00862C26.4219 3.00039 24.9288 3.1174 23.4531 3.3584V21.2397H25.7783V13.9912C26.3129 14.125 26.9542 14.1518 27.6487 14.1518C29.9205 14.1518 31.9242 13.479 33.1561 12.162C34.0646 11.2225 34.546 9.93319 34.546 8.29595C34.546 6.68733 33.958 5.37125 32.9696 4.51203C31.8984 3.54573 30.2136 3.00862 27.9169 3.00862ZM27.7019 12.2672C26.9275 12.2672 26.2853 12.2174 25.7783 12.0826V5.04269C26.1788 4.9384 26.9542 4.85811 27.9692 4.85811C30.5351 4.85811 32.2181 6.01176 32.2181 8.40115C32.2181 10.8985 30.5076 12.2672 27.7019 12.2672ZM42.9315 21.238L42.7478 19.5998H42.6678C41.9458 20.6206 40.555 21.5333 38.712 21.5333C36.0939 21.5333 34.7572 19.681 34.7572 17.8011C34.7572 14.6632 37.5371 12.942 42.5337 12.9687V12.7002C42.5337 11.6268 42.2397 9.69334 39.594 9.69334C38.3914 9.69334 37.1357 10.0699 36.2271 10.6605L35.6924 9.1036C36.7617 8.40495 38.3116 7.94904 39.9412 7.94904C43.897 7.94904 44.8589 10.6605 44.8589 13.2641V18.1204C44.8589 19.2482 44.9122 20.3492 45.072 21.2352L42.9315 21.238ZM42.5842 14.6069C40.0193 14.5534 37.1062 15.0093 37.1062 17.5325C37.1062 19.0627 38.1214 19.7881 39.3248 19.7881C41.0078 19.7881 42.0808 18.7138 42.4483 17.6137C42.5311 17.3714 42.5761 17.1177 42.5815 16.8616L42.5842 14.6069ZM50.8119 15.923L47.9797 8.24535H45.4148L50.1936 20.2145C50.3012 20.5099 50.3545 20.6972 50.3545 20.832C50.3545 20.9667 50.2782 21.1541 50.1707 21.3959C49.7241 22.4153 49.0472 23.3162 48.1937 24.0271C47.5874 24.5412 46.889 24.9343 46.1359 25.1853L46.7238 27.1714C47.3128 27.0644 48.4611 26.662 49.6094 25.6413C51.2134 24.244 52.3617 21.9635 54.0457 17.5067L57.5734 8.24535H55.0883L52.5188 15.8695C52.3114 16.4806 52.1259 17.1143 51.9553 17.6971C51.8635 18.0103 51.7761 18.3087 51.692 18.581H51.6387C51.4265 17.8021 51.1059 16.7823 50.8119 15.923Z" fill="white"/>
</svg>
