<svg width="56" height="23" viewBox="0 0 56 23" fill="none" xmlns="http://www.w3.org/2000/svg">
<path fill-rule="evenodd" clip-rule="evenodd" d="M9.92726 4.42803C11.2091 4.40724 12.4479 4.88551 13.3764 5.75967L15.9414 3.22472C14.3138 1.715 12.1587 0.886191 9.92726 0.911705C8.26198 0.911687 6.6294 1.36905 5.21163 2.2328C3.79387 3.09653 2.6465 4.33269 1.89761 5.80346L1.89769 5.80484C1.26824 7.04161 0.94043 8.40692 0.94043 9.79146C0.94043 11.176 1.26824 12.5413 1.89769 13.7781L1.89761 13.7813C2.6465 15.252 3.79387 16.4882 5.21163 17.3519C6.6294 18.2157 8.26198 18.673 9.92726 18.673V18.67C12.3534 18.67 14.3947 17.8834 15.8819 16.5261L15.8957 16.526C17.5921 14.9799 18.5692 12.6956 18.5692 9.99308H18.5585C18.5601 9.38595 18.509 8.77981 18.4058 8.18132H9.92733V11.6071H14.7903C14.6912 12.1535 14.481 12.6744 14.1724 13.1382C13.8637 13.6019 13.4631 13.9989 12.9947 14.3051V14.3157L12.9809 14.3052C12.1747 14.8427 11.1365 15.1552 9.92726 15.1552C7.58354 15.1552 5.59409 13.5941 4.88868 11.4909L4.88259 11.4908C4.50601 10.3885 4.50601 9.19444 4.88259 8.09218V8.0908C5.59409 5.98614 7.58354 4.42652 9.9211 4.42652L9.92726 4.42803ZM26.6798 9.4433V4.04878V4.04728H30.0388C30.5792 4.04305 31.1087 4.19697 31.5609 4.48968C32.013 4.7824 32.3674 5.20081 32.5796 5.69227C32.7918 6.18372 32.8523 6.72626 32.7534 7.2516C32.6544 7.77695 32.4006 8.26162 32.0237 8.64461C31.7668 8.90635 31.4577 9.1125 31.116 9.24998C30.7743 9.38747 30.4075 9.4533 30.0388 9.4433H26.6798ZM26.6798 17.6007V11.3472H30.0006C31.3697 11.3482 32.5199 10.9093 33.4513 10.0306C33.9065 9.61338 34.2696 9.1077 34.518 8.54524C34.7663 7.98276 34.8945 7.37564 34.8945 6.7619C34.8945 6.14816 34.7663 5.54103 34.518 4.97855C34.2696 4.41608 33.9065 3.91039 33.4513 3.49319C32.9937 3.05629 32.4532 2.7132 31.861 2.48363C31.2688 2.25405 30.6366 2.14253 30.0006 2.1555H24.6705V17.6007H26.6798ZM37.1038 15.091C36.9878 14.8654 36.928 14.6156 36.9294 14.3624C36.9294 13.7887 37.2027 13.3076 37.7493 12.9191C38.2959 12.5306 38.9763 12.3363 39.7907 12.3363C40.9124 12.3353 41.7863 12.5799 42.4123 13.07C42.4123 13.4821 42.3238 13.8895 42.1524 14.2651C41.981 14.6408 41.7308 14.976 41.4183 15.2487C40.8182 15.8412 40.0051 16.1746 39.157 16.1757C38.5923 16.1862 38.0412 16.0038 37.5966 15.6594C37.3888 15.5115 37.2199 15.3166 37.1038 15.091ZM43.0367 7.86123C42.1817 7.07714 41.0112 6.68511 39.525 6.68511C37.6175 6.68511 36.1772 7.37458 35.2041 8.75354L36.9752 9.85419C37.6318 8.91911 38.5198 8.45157 39.6395 8.45157C40.3562 8.44168 41.0502 8.6994 41.5832 9.17326C41.8448 9.38722 42.0551 9.65604 42.1987 9.96025C42.3424 10.2645 42.4158 10.5964 42.4138 10.9322V11.3851C41.6412 10.9543 40.6579 10.7389 39.464 10.7389C38.0613 10.7379 36.9416 11.0615 36.1049 11.7097C35.2682 12.3579 34.8499 13.2276 34.8499 14.3187C34.8407 14.8109 34.9429 15.299 35.149 15.7473C35.355 16.1955 35.6597 16.5925 36.0408 16.9095C36.8332 17.601 37.8226 17.9452 39.0013 17.9452C40.3846 17.9452 41.4911 17.3413 42.3206 16.1334H42.4092V17.601H44.3239V11.0862C44.3208 9.72031 43.8918 8.64532 43.0367 7.86123ZM55.3628 7.02624L48.6554 22.2601H46.5805L49.0707 16.9305L44.6582 7.02624H46.8431L50.0326 14.622H50.0754L53.1779 7.02624H55.3628Z" fill="white"/>
</svg>
