<svg width="165" height="49" viewBox="0 0 165 49" fill="none" xmlns="http://www.w3.org/2000/svg">
<path d="M58.1066 12.789C58.1066 13.797 57.8029 14.601 57.1955 15.189C56.5152 15.897 55.6162 16.257 54.5229 16.257C53.466 16.257 52.5792 15.897 51.8381 15.177C51.0971 14.457 50.7327 13.557 50.7327 12.501C50.7327 11.433 51.0971 10.545 51.8381 9.825C52.5792 9.105 53.466 8.745 54.5229 8.745C55.0453 8.745 55.5433 8.841 56.0171 9.045C56.4909 9.249 56.8675 9.513 57.159 9.849L56.5152 10.485C56.0293 9.92099 55.3733 9.633 54.5229 9.633C53.7576 9.633 53.0894 9.89699 52.5306 10.437C51.9718 10.965 51.6924 11.661 51.6924 12.513C51.6924 13.365 51.9718 14.061 52.5306 14.589C53.0894 15.117 53.7576 15.393 54.5229 15.393C55.3368 15.393 56.0171 15.129 56.5638 14.589C56.9161 14.241 57.1226 13.749 57.1712 13.125H54.5229V12.249H58.058C58.0823 12.441 58.1066 12.621 58.1066 12.789Z" fill="white" stroke="white" stroke-width="0.199737" stroke-miterlimit="10"/>
<path d="M63.7074 9.78851H60.391V12.0685H63.3794V12.9325H60.391V15.2125H63.7074V16.1005H59.4556V8.90051H63.7074V9.78851Z" fill="white" stroke="white" stroke-width="0.199737" stroke-miterlimit="10"/>
<path d="M67.655 16.1005H66.7196V9.78851H64.6787V8.90051H69.6837V9.78851H67.6429V16.1005H67.655Z" fill="white" stroke="white" stroke-width="0.199737" stroke-miterlimit="10"/>
<path d="M73.3167 16.1005V8.90051H74.2521V16.1005H73.3167Z" fill="white" stroke="white" stroke-width="0.199737" stroke-miterlimit="10"/>
<path d="M78.4057 16.1005H77.4703V9.78851H75.4294V8.90051H80.4345V9.78851H78.3936V16.1005H78.4057Z" fill="white" stroke="white" stroke-width="0.199737" stroke-miterlimit="10"/>
<path d="M89.9218 15.163C89.205 15.895 88.3182 16.255 87.2492 16.255C86.1802 16.255 85.2933 15.895 84.5766 15.163C83.8599 14.431 83.5076 13.543 83.5076 12.499C83.5076 11.455 83.8599 10.555 84.5766 9.83504C85.2933 9.10304 86.1802 8.74304 87.2492 8.74304C88.3061 8.74304 89.1929 9.10304 89.9218 9.83504C90.6385 10.567 91.003 11.455 91.003 12.499C90.9908 13.555 90.6385 14.443 89.9218 15.163ZM85.269 14.563C85.8036 15.103 86.4717 15.367 87.2492 15.367C88.0267 15.367 88.6948 15.103 89.2293 14.563C89.7639 14.023 90.0433 13.339 90.0433 12.499C90.0433 11.659 89.776 10.975 89.2293 10.435C88.6948 9.89504 88.0267 9.61904 87.2492 9.61904C86.4717 9.61904 85.8036 9.88304 85.269 10.423C84.7345 10.975 84.4551 11.659 84.4551 12.499C84.4551 13.339 84.7345 14.023 85.269 14.563Z" fill="white" stroke="white" stroke-width="0.199737" stroke-miterlimit="10"/>
<path d="M92.3152 16.1005V8.90051H93.4571L97.0044 14.5045H97.0408L97.0044 13.1125V8.90051H97.9398V16.1005H96.9679L93.2627 10.2325H93.2263L93.2627 11.6245V16.1005H92.3152Z" fill="white" stroke="white" stroke-width="0.199737" stroke-miterlimit="10"/>
<path d="M83.2755 26.5987C80.4206 26.5987 78.0882 28.7467 78.0882 31.6987C78.0882 34.6387 80.4206 36.7987 83.2755 36.7987C86.1303 36.7987 88.4627 34.6387 88.4627 31.6987C88.4627 28.7467 86.1303 26.5987 83.2755 26.5987ZM83.2755 34.7947C81.7083 34.7947 80.3599 33.5227 80.3599 31.6987C80.3599 29.8627 81.7083 28.6027 83.2755 28.6027C84.8426 28.6027 86.191 29.8627 86.191 31.6987C86.191 33.5227 84.8304 34.7947 83.2755 34.7947ZM71.9534 26.5987C69.0986 26.5987 66.7661 28.7467 66.7661 31.6987C66.7661 34.6387 69.0986 36.7987 71.9534 36.7987C74.8082 36.7987 77.1406 34.6387 77.1406 31.6987C77.1406 28.7467 74.8082 26.5987 71.9534 26.5987ZM71.9534 34.7947C70.3863 34.7947 69.0378 33.5227 69.0378 31.6987C69.0378 29.8627 70.3863 28.6027 71.9534 28.6027C73.5205 28.6027 74.8689 29.8627 74.8689 31.6987C74.8689 33.5227 73.5205 34.7947 71.9534 34.7947ZM58.4933 28.1707V30.3307H63.7413C63.5833 31.5427 63.1703 32.4427 62.5507 33.0547C61.7854 33.8107 60.5949 34.6387 58.5054 34.6387C55.274 34.6387 52.7472 32.0707 52.7472 28.8787C52.7472 25.6867 55.274 23.1187 58.5054 23.1187C60.2426 23.1187 61.5181 23.7907 62.4535 24.6667L63.9964 23.1427C62.6844 21.9067 60.9472 20.9587 58.4933 20.9587C54.0713 20.9587 50.354 24.5107 50.354 28.8907C50.354 33.2587 54.0713 36.8227 58.4933 36.8227C60.8864 36.8227 62.6844 36.0547 64.0935 34.6027C65.5392 33.1747 65.9887 31.1587 65.9887 29.5387C65.9887 29.0347 65.9522 28.5667 65.8672 28.1827H58.4933V28.1707ZM113.536 29.8507C113.111 28.7107 111.799 26.5987 109.115 26.5987C106.454 26.5987 104.243 28.6627 104.243 31.6987C104.243 34.5547 106.43 36.7987 109.37 36.7987C111.739 36.7987 113.111 35.3707 113.67 34.5427L111.909 33.3787C111.325 34.2307 110.524 34.7947 109.37 34.7947C108.216 34.7947 107.389 34.2667 106.867 33.2467L113.779 30.4267L113.536 29.8507ZM106.491 31.5547C106.43 29.5867 108.033 28.5787 109.187 28.5787C110.086 28.5787 110.852 29.0227 111.107 29.6587L106.491 31.5547ZM100.878 36.4987H103.15V21.4987H100.878V36.4987ZM97.1608 27.7387H97.0757C96.5655 27.1387 95.5937 26.5987 94.3546 26.5987C91.767 26.5987 89.3981 28.8427 89.3981 31.7227C89.3981 34.5787 91.767 36.8107 94.3546 36.8107C95.5815 36.8107 96.5655 36.2707 97.0757 35.6467H97.1486V36.3787C97.1486 38.3347 96.0917 39.3787 94.391 39.3787C93.0061 39.3787 92.1436 38.3947 91.7913 37.5667L89.8111 38.3827C90.3821 39.7387 91.8885 41.3947 94.391 41.3947C97.0514 41.3947 99.2988 39.8467 99.2988 36.0787V26.9107H97.1486V27.7387H97.1608ZM94.5489 34.7947C92.9818 34.7947 91.6698 33.4987 91.6698 31.7227C91.6698 29.9227 92.9818 28.6147 94.5489 28.6147C96.0917 28.6147 97.3066 29.9347 97.3066 31.7227C97.3187 33.4987 96.1039 34.7947 94.5489 34.7947ZM124.178 21.4987H118.748V36.4987H121.02V30.8107H124.19C126.705 30.8107 129.171 29.0107 129.171 26.1547C129.171 23.2987 126.681 21.4987 124.178 21.4987ZM124.227 28.7227H121.008V23.5747H124.227C125.928 23.5747 126.887 24.9667 126.887 26.1427C126.887 27.3187 125.928 28.7227 124.227 28.7227ZM138.246 26.5747C136.606 26.5747 134.905 27.2947 134.2 28.8667L136.217 29.6947C136.642 28.8667 137.444 28.5907 138.282 28.5907C139.461 28.5907 140.651 29.2867 140.663 30.5227V30.6787C140.25 30.4507 139.376 30.1027 138.294 30.1027C136.12 30.1027 133.921 31.2787 133.921 33.4747C133.921 35.4787 135.695 36.7747 137.687 36.7747C139.205 36.7747 140.056 36.1027 140.578 35.3107H140.651V36.4747H142.838V30.7267C142.85 28.0627 140.833 26.5747 138.246 26.5747ZM137.966 34.7947C137.225 34.7947 136.193 34.4227 136.193 33.5227C136.193 32.3707 137.48 31.9267 138.598 31.9267C139.594 31.9267 140.068 32.1427 140.663 32.4307C140.493 33.8107 139.278 34.7947 137.966 34.7947ZM150.819 26.8987L148.219 33.4027H148.146L145.45 26.8987H143.008L147.053 35.9947L144.745 41.0467H147.114L153.346 26.8987H150.819ZM130.41 36.4987H132.682V21.4987H130.41V36.4987Z" fill="white"/>
</svg>
