<svg width="189" height="56" viewBox="0 0 189 56" fill="none" xmlns="http://www.w3.org/2000/svg">
<rect x="1.08085" y="0.70146" width="187.13" height="54.5971" rx="6.31314" stroke="#EDEDED" stroke-width="1.40292"/>
<path d="M181.93 55.2985H7.36211C3.91066 55.2985 1.08085 52.4642 1.08085 49V7C1.08085 3.53577 3.91066 0.70146 7.36211 0.70146H181.93C185.381 0.70146 188.211 3.53577 188.211 7V49C188.211 52.4642 185.381 55.2985 181.93 55.2985Z" stroke="#EDEDED" stroke-width="1.40292"/>
<path d="M66.6027 14.3359C66.6027 15.5119 66.2536 16.4499 65.5553 17.1359C64.7733 17.9619 63.7398 18.3819 62.483 18.3819C61.268 18.3819 60.2485 17.9619 59.3966 17.1219C58.5447 16.2819 58.1257 15.2319 58.1257 13.9999C58.1257 12.7539 58.5447 11.7179 59.3966 10.8779C60.2485 10.0379 61.268 9.61789 62.483 9.61789C63.0835 9.61789 63.656 9.72989 64.2007 9.96789C64.7453 10.2059 65.1783 10.5139 65.5134 10.9059L64.7733 11.6479C64.2147 10.9899 63.4605 10.6539 62.483 10.6539C61.6031 10.6539 60.835 10.9619 60.1926 11.5919C59.5502 12.2079 59.229 13.0199 59.229 14.0139C59.229 15.0079 59.5502 15.8199 60.1926 16.4359C60.835 17.0519 61.6031 17.3739 62.483 17.3739C63.4186 17.3739 64.2007 17.0659 64.8291 16.4359C65.2341 16.0299 65.4716 15.4559 65.5274 14.7279H62.483V13.7059H66.5469C66.5748 13.9299 66.6027 14.1399 66.6027 14.3359Z" fill="#EDEDED" stroke="#EDEDED" stroke-width="0.280584" stroke-miterlimit="10"/>
<path d="M73.0415 10.8371H69.2289V13.4971H72.6644V14.5051H69.2289V17.1651H73.0415V18.2011H68.1536V9.80109H73.0415V10.8371Z" fill="#EDEDED" stroke="#EDEDED" stroke-width="0.280584" stroke-miterlimit="10"/>
<path d="M77.58 18.2011H76.5046V10.8371H74.1584V9.80109H79.9122V10.8371H77.566V18.2011H77.58Z" fill="#EDEDED" stroke="#EDEDED" stroke-width="0.280584" stroke-miterlimit="10"/>
<path d="M84.0876 18.2011V9.80109H85.163V18.2011H84.0876Z" fill="#EDEDED" stroke="#EDEDED" stroke-width="0.280584" stroke-miterlimit="10"/>
<path d="M89.9393 18.2011H88.864V10.8371H86.5178V9.80109H92.2716V10.8371H89.9254V18.2011H89.9393Z" fill="#EDEDED" stroke="#EDEDED" stroke-width="0.280584" stroke-miterlimit="10"/>
<path d="M103.179 17.108C102.355 17.962 101.335 18.382 100.107 18.382C98.8776 18.382 97.8581 17.962 97.0341 17.108C96.2102 16.254 95.8052 15.218 95.8052 14C95.8052 12.782 96.2102 11.732 97.0341 10.892C97.8581 10.038 98.8776 9.61795 100.107 9.61795C101.322 9.61795 102.341 10.038 103.179 10.892C104.003 11.746 104.422 12.782 104.422 14C104.408 15.232 104.003 16.268 103.179 17.108ZM97.8302 16.408C98.4446 17.038 99.2127 17.346 100.107 17.346C101 17.346 101.768 17.038 102.383 16.408C102.997 15.778 103.319 14.98 103.319 14C103.319 13.02 103.011 12.222 102.383 11.592C101.768 10.962 101 10.64 100.107 10.64C99.2127 10.64 98.4446 10.948 97.8302 11.578C97.2157 12.222 96.8945 13.02 96.8945 14C96.8945 14.98 97.2157 15.778 97.8302 16.408Z" fill="#EDEDED" stroke="#EDEDED" stroke-width="0.280584" stroke-miterlimit="10"/>
<path d="M105.929 18.2011V9.80109H107.242L111.32 16.3391H111.362L111.32 14.7151V9.80109H112.395V18.2011H111.278L107.019 11.3551H106.977L107.019 12.9791V18.2011H105.929Z" fill="#EDEDED" stroke="#EDEDED" stroke-width="0.280584" stroke-miterlimit="10"/>
<mask id="path-10-inside-1_393_3780" fill="white">
<path d="M95.5377 30.4494C92.2558 30.4494 89.5745 32.9554 89.5745 36.3994C89.5745 39.8294 92.2558 42.3494 95.5377 42.3494C98.8196 42.3494 101.501 39.8294 101.501 36.3994C101.501 32.9554 98.8196 30.4494 95.5377 30.4494ZM95.5377 40.0114C93.7362 40.0114 92.186 38.5274 92.186 36.3994C92.186 34.2574 93.7362 32.7874 95.5377 32.7874C97.3393 32.7874 98.8894 34.2574 98.8894 36.3994C98.8894 38.5274 97.3253 40.0114 95.5377 40.0114ZM82.5219 30.4494C79.2401 30.4494 76.5587 32.9554 76.5587 36.3994C76.5587 39.8294 79.2401 42.3494 82.5219 42.3494C85.8038 42.3494 88.4852 39.8294 88.4852 36.3994C88.4852 32.9554 85.8038 30.4494 82.5219 30.4494ZM82.5219 40.0114C80.7204 40.0114 79.1702 38.5274 79.1702 36.3994C79.1702 34.2574 80.7204 32.7874 82.5219 32.7874C84.3235 32.7874 85.8736 34.2574 85.8736 36.3994C85.8736 38.5274 84.3235 40.0114 82.5219 40.0114ZM67.0482 32.2834V34.8034H73.0813C72.8998 36.2174 72.4249 37.2674 71.7127 37.9814C70.8329 38.8634 69.4643 39.8294 67.0622 39.8294C63.3474 39.8294 60.4426 36.8334 60.4426 33.1094C60.4426 29.3854 63.3474 26.3894 67.0622 26.3894C69.0593 26.3894 70.5256 27.1734 71.601 28.1954L73.3746 26.4174C71.8663 24.9754 69.8693 23.8694 67.0482 23.8694C61.9648 23.8694 57.6914 28.0134 57.6914 33.1234C57.6914 38.2194 61.9648 42.3774 67.0482 42.3774C69.7994 42.3774 71.8663 41.4814 73.4863 39.7874C75.1482 38.1214 75.6649 35.7694 75.6649 33.8794C75.6649 33.2914 75.623 32.7454 75.5253 32.2974H67.0482V32.2834ZM130.326 34.2434C129.837 32.9134 128.329 30.4494 125.242 30.4494C122.184 30.4494 119.642 32.8574 119.642 36.3994C119.642 39.7314 122.156 42.3494 125.535 42.3494C128.259 42.3494 129.837 40.6834 130.479 39.7174L128.454 38.3594C127.784 39.3534 126.862 40.0114 125.535 40.0114C124.209 40.0114 123.259 39.3954 122.659 38.2054L130.605 34.9154L130.326 34.2434ZM122.226 36.2314C122.156 33.9354 123.999 32.7594 125.326 32.7594C126.359 32.7594 127.239 33.2774 127.533 34.0194L122.226 36.2314ZM115.774 41.9994H118.385V24.4994H115.774V41.9994ZM111.5 31.7794H111.402C110.816 31.0794 109.699 30.4494 108.274 30.4494C105.3 30.4494 102.576 33.0674 102.576 36.4274C102.576 39.7594 105.3 42.3634 108.274 42.3634C109.685 42.3634 110.816 41.7334 111.402 41.0054H111.486V41.8594C111.486 44.1414 110.271 45.3594 108.316 45.3594C106.724 45.3594 105.732 44.2114 105.327 43.2454L103.051 44.1974C103.707 45.7794 105.439 47.7114 108.316 47.7114C111.375 47.7114 113.958 45.9054 113.958 41.5094V30.8134H111.486V31.7794H111.5ZM108.498 40.0114C106.696 40.0114 105.188 38.4994 105.188 36.4274C105.188 34.3274 106.696 32.8014 108.498 32.8014C110.271 32.8014 111.668 34.3414 111.668 36.4274C111.682 38.4994 110.285 40.0114 108.498 40.0114ZM142.559 24.4994H136.317V41.9994H138.928V35.3634H142.573C145.464 35.3634 148.299 33.2634 148.299 29.9314C148.299 26.5994 145.436 24.4994 142.559 24.4994ZM142.615 32.9274H138.914V26.9214H142.615C144.57 26.9214 145.674 28.5454 145.674 29.9174C145.674 31.2894 144.57 32.9274 142.615 32.9274ZM158.731 30.4214C156.846 30.4214 154.891 31.2614 154.081 33.0954L156.399 34.0614C156.888 33.0954 157.81 32.7734 158.773 32.7734C160.128 32.7734 161.496 33.5854 161.51 35.0274V35.2094C161.036 34.9434 160.03 34.5374 158.787 34.5374C156.287 34.5374 153.76 35.9094 153.76 38.4714C153.76 40.8094 155.799 42.3214 158.089 42.3214C159.835 42.3214 160.812 41.5374 161.413 40.6134H161.496V41.9714H164.01V35.2654C164.024 32.1574 161.706 30.4214 158.731 30.4214ZM158.41 40.0114C157.558 40.0114 156.371 39.5774 156.371 38.5274C156.371 37.1834 157.851 36.6654 159.136 36.6654C160.281 36.6654 160.826 36.9174 161.51 37.2534C161.315 38.8634 159.918 40.0114 158.41 40.0114ZM173.186 30.7994L170.197 38.3874H170.113L167.013 30.7994H164.206L168.856 41.4114L166.203 47.3054H168.926L176.09 30.7994H173.186ZM149.724 41.9994H152.335V24.4994H149.724V41.9994Z"/>
</mask>
<path d="M95.5377 30.4494C92.2558 30.4494 89.5745 32.9554 89.5745 36.3994C89.5745 39.8294 92.2558 42.3494 95.5377 42.3494C98.8196 42.3494 101.501 39.8294 101.501 36.3994C101.501 32.9554 98.8196 30.4494 95.5377 30.4494ZM95.5377 40.0114C93.7362 40.0114 92.186 38.5274 92.186 36.3994C92.186 34.2574 93.7362 32.7874 95.5377 32.7874C97.3393 32.7874 98.8894 34.2574 98.8894 36.3994C98.8894 38.5274 97.3253 40.0114 95.5377 40.0114ZM82.5219 30.4494C79.2401 30.4494 76.5587 32.9554 76.5587 36.3994C76.5587 39.8294 79.2401 42.3494 82.5219 42.3494C85.8038 42.3494 88.4852 39.8294 88.4852 36.3994C88.4852 32.9554 85.8038 30.4494 82.5219 30.4494ZM82.5219 40.0114C80.7204 40.0114 79.1702 38.5274 79.1702 36.3994C79.1702 34.2574 80.7204 32.7874 82.5219 32.7874C84.3235 32.7874 85.8736 34.2574 85.8736 36.3994C85.8736 38.5274 84.3235 40.0114 82.5219 40.0114ZM67.0482 32.2834V34.8034H73.0813C72.8998 36.2174 72.4249 37.2674 71.7127 37.9814C70.8329 38.8634 69.4643 39.8294 67.0622 39.8294C63.3474 39.8294 60.4426 36.8334 60.4426 33.1094C60.4426 29.3854 63.3474 26.3894 67.0622 26.3894C69.0593 26.3894 70.5256 27.1734 71.601 28.1954L73.3746 26.4174C71.8663 24.9754 69.8693 23.8694 67.0482 23.8694C61.9648 23.8694 57.6914 28.0134 57.6914 33.1234C57.6914 38.2194 61.9648 42.3774 67.0482 42.3774C69.7994 42.3774 71.8663 41.4814 73.4863 39.7874C75.1482 38.1214 75.6649 35.7694 75.6649 33.8794C75.6649 33.2914 75.623 32.7454 75.5253 32.2974H67.0482V32.2834ZM130.326 34.2434C129.837 32.9134 128.329 30.4494 125.242 30.4494C122.184 30.4494 119.642 32.8574 119.642 36.3994C119.642 39.7314 122.156 42.3494 125.535 42.3494C128.259 42.3494 129.837 40.6834 130.479 39.7174L128.454 38.3594C127.784 39.3534 126.862 40.0114 125.535 40.0114C124.209 40.0114 123.259 39.3954 122.659 38.2054L130.605 34.9154L130.326 34.2434ZM122.226 36.2314C122.156 33.9354 123.999 32.7594 125.326 32.7594C126.359 32.7594 127.239 33.2774 127.533 34.0194L122.226 36.2314ZM115.774 41.9994H118.385V24.4994H115.774V41.9994ZM111.5 31.7794H111.402C110.816 31.0794 109.699 30.4494 108.274 30.4494C105.3 30.4494 102.576 33.0674 102.576 36.4274C102.576 39.7594 105.3 42.3634 108.274 42.3634C109.685 42.3634 110.816 41.7334 111.402 41.0054H111.486V41.8594C111.486 44.1414 110.271 45.3594 108.316 45.3594C106.724 45.3594 105.732 44.2114 105.327 43.2454L103.051 44.1974C103.707 45.7794 105.439 47.7114 108.316 47.7114C111.375 47.7114 113.958 45.9054 113.958 41.5094V30.8134H111.486V31.7794H111.5ZM108.498 40.0114C106.696 40.0114 105.188 38.4994 105.188 36.4274C105.188 34.3274 106.696 32.8014 108.498 32.8014C110.271 32.8014 111.668 34.3414 111.668 36.4274C111.682 38.4994 110.285 40.0114 108.498 40.0114ZM142.559 24.4994H136.317V41.9994H138.928V35.3634H142.573C145.464 35.3634 148.299 33.2634 148.299 29.9314C148.299 26.5994 145.436 24.4994 142.559 24.4994ZM142.615 32.9274H138.914V26.9214H142.615C144.57 26.9214 145.674 28.5454 145.674 29.9174C145.674 31.2894 144.57 32.9274 142.615 32.9274ZM158.731 30.4214C156.846 30.4214 154.891 31.2614 154.081 33.0954L156.399 34.0614C156.888 33.0954 157.81 32.7734 158.773 32.7734C160.128 32.7734 161.496 33.5854 161.51 35.0274V35.2094C161.036 34.9434 160.03 34.5374 158.787 34.5374C156.287 34.5374 153.76 35.9094 153.76 38.4714C153.76 40.8094 155.799 42.3214 158.089 42.3214C159.835 42.3214 160.812 41.5374 161.413 40.6134H161.496V41.9714H164.01V35.2654C164.024 32.1574 161.706 30.4214 158.731 30.4214ZM158.41 40.0114C157.558 40.0114 156.371 39.5774 156.371 38.5274C156.371 37.1834 157.851 36.6654 159.136 36.6654C160.281 36.6654 160.826 36.9174 161.51 37.2534C161.315 38.8634 159.918 40.0114 158.41 40.0114ZM173.186 30.7994L170.197 38.3874H170.113L167.013 30.7994H164.206L168.856 41.4114L166.203 47.3054H168.926L176.09 30.7994H173.186ZM149.724 41.9994H152.335V24.4994H149.724V41.9994Z" fill="#EDEDED" stroke="#EDEDED" stroke-width="2.80584" mask="url(#path-10-inside-1_393_3780)"/>
<path d="M15.3243 12.5033L15.3243 12.5033L31.0208 27.7315C31.0293 27.7398 31.0362 27.7498 31.041 27.761C31.0456 27.7718 31.0481 27.7833 31.0484 27.7951C31.0483 27.8078 31.0457 27.8203 31.0409 27.832C31.036 27.844 31.0289 27.8548 31.02 27.8638C31.0199 27.864 31.0197 27.8641 31.0196 27.8642L15.5703 43.3518C15.5701 43.352 15.5698 43.3522 15.5696 43.3525C15.5599 43.3618 15.5485 43.3689 15.5361 43.3733C15.5233 43.3777 15.5099 43.3793 15.4966 43.3779C15.4833 43.3765 15.4703 43.3721 15.4587 43.365C15.4471 43.3579 15.4371 43.3482 15.4294 43.3365L14.8421 43.72L15.4307 43.3384C15.1741 42.9426 15.0472 42.5153 15.0472 42.0575V13.2947C15.0496 13.0402 15.0932 12.7879 15.1763 12.5475L15.1763 12.5475L15.1788 12.54C15.1837 12.5252 15.1923 12.5121 15.2034 12.5018C15.2146 12.4915 15.228 12.4844 15.2423 12.4809C15.2567 12.4773 15.2717 12.4775 15.2859 12.4814C15.3002 12.4853 15.3134 12.4928 15.3243 12.5033Z" fill="#EDEDED" stroke="#EDEDED" stroke-width="1.40292"/>
<path d="M33.1373 25.6249L33.1343 25.6219L18.4342 11.3593C18.4341 11.3592 18.434 11.3592 18.434 11.3591C18.4182 11.3437 18.4081 11.3228 18.406 11.3001C18.4039 11.2781 18.4095 11.2563 18.4215 11.2383C18.4344 11.2211 18.4525 11.2092 18.4726 11.2042C18.4912 11.1995 18.5107 11.2009 18.5285 11.2081L37.2275 21.4735C37.2278 21.4736 37.2281 21.4738 37.2284 21.474C37.2404 21.4809 37.2508 21.4904 37.2588 21.5021L37.8371 21.1051L37.2588 21.5021C37.2671 21.5141 37.2725 21.5279 37.2746 21.5426C37.2766 21.5572 37.2753 21.5722 37.2707 21.5861C37.2662 21.5998 37.2587 21.6121 37.2489 21.6223C37.2487 21.6225 37.2485 21.6227 37.2483 21.6229L33.259 25.6221L33.257 25.624C33.2409 25.6403 33.2194 25.6492 33.1973 25.6494C33.1752 25.6495 33.1536 25.6409 33.1373 25.6249Z" fill="#EDEDED" stroke="#EDEDED" stroke-width="1.40292"/>
<path d="M44.7414 25.5977L44.7416 25.5977C45.5125 26.021 45.9681 26.7913 45.9681 27.6739C45.9681 28.5565 45.5125 29.3267 44.7416 29.75C44.7416 29.75 44.7416 29.75 44.7416 29.75L40.1071 32.2939C40.1069 32.294 40.1067 32.2941 40.1066 32.2942C40.0894 32.3034 40.0699 32.3069 40.0508 32.3043C40.0318 32.3018 40.0138 32.2933 39.9994 32.2797C39.9992 32.2795 39.999 32.2793 39.9988 32.2791L35.4076 27.8238C35.4075 27.8238 35.4075 27.8237 35.4075 27.8237C35.399 27.8154 35.3921 27.8054 35.3874 27.7943C35.3826 27.7831 35.38 27.771 35.3799 27.7587C35.3798 27.7464 35.3822 27.7343 35.3868 27.723C35.3913 27.7118 35.398 27.7017 35.4064 27.6932C35.4064 27.6932 35.4065 27.6931 35.4065 27.6931L40.0121 23.0761C40.0122 23.076 40.0124 23.0758 40.0126 23.0756C40.0269 23.0616 40.0451 23.0527 40.0644 23.0499C40.0837 23.0472 40.1034 23.0506 40.1208 23.0599C40.1211 23.06 40.1213 23.0601 40.1215 23.0602L44.7414 25.5977Z" fill="#EDEDED" stroke="#EDEDED" stroke-width="1.40292"/>
<path d="M19.907 43.9713L20.0465 43.2839C20.0263 43.2798 20.0079 43.2683 19.995 43.2512C19.9821 43.234 19.9758 43.2123 19.9776 43.1904C19.9795 43.1685 19.9892 43.1483 20.0046 43.1336L20.0108 43.1277L20.0168 43.1217L33.1699 29.936C33.1866 29.9193 33.2087 29.9102 33.2315 29.91C33.2543 29.9098 33.2766 29.9186 33.2935 29.9349L37.2201 33.743L37.2219 33.7446C37.2319 33.7543 37.2396 33.7662 37.2443 33.7797C37.2489 33.7931 37.2504 33.8076 37.2485 33.8218C37.2466 33.836 37.2414 33.8494 37.2335 33.861L37.8118 34.2579L37.2335 33.861C37.2255 33.8726 37.2151 33.8819 37.2031 33.8885L37.2018 33.8892L20.1217 43.265L20.1136 43.2694L20.1057 43.274C20.0877 43.2846 20.0666 43.288 20.0465 43.2839L19.907 43.9713Z" fill="#EDEDED" stroke="#EDEDED" stroke-width="1.40292"/>
</svg>
