<svg width="38" height="23" viewBox="0 0 38 23" fill="none" xmlns="http://www.w3.org/2000/svg">
<path fill-rule="evenodd" clip-rule="evenodd" d="M11.5424 22.2601C13.9667 22.2601 16.2048 21.4701 18.007 20.1363C15.7209 17.9868 14.2958 14.9508 14.2958 11.5858C14.2958 8.2204 15.7209 5.18449 18.007 3.0352C16.2048 1.70118 13.9667 0.911133 11.5424 0.911133C5.57926 0.911133 0.745117 5.69034 0.745117 11.5858C0.745117 17.4809 5.57926 22.2601 11.5424 22.2601ZM26.2297 0.911133C23.8051 0.911133 21.5673 1.70118 19.7651 3.0352C22.0509 5.18449 23.476 8.2204 23.476 11.5858C23.476 14.9508 22.0509 17.9868 19.7651 20.1363C21.5673 21.4701 23.8051 22.2601 26.2297 22.2601C32.1926 22.2601 37.0267 17.4809 37.0267 11.5858C37.0267 5.69034 32.1926 0.911133 26.2297 0.911133ZM22.3395 11.5858C22.3395 8.49417 21.0101 5.70954 18.8861 3.76022C16.7617 5.70954 15.4323 8.49417 15.4323 11.5858C15.4323 14.6771 16.7617 17.4617 18.8861 19.411C21.0101 17.4617 22.3395 14.6771 22.3395 11.5858Z" fill="#EDEDED"/>
</svg>
